<?xml version="1.0" encoding="UTF-8"?><svg id="Layer_2" xmlns="http://www.w3.org/2000/svg" viewBox="0 0 1842.91 1894.3"><defs><style>.cls-1{fill:#eaf6fe;}.cls-2{fill:#fff;}.cls-3{fill:#b25a40;}.cls-4{fill:#aaddf9;}.cls-5{fill:#c46d48;}.cls-6{fill:#11182a;}.cls-7{fill:#252c49;}.cls-8{fill:#43517f;}.cls-9{fill:#2a2754;}.cls-10{fill:#4d3932;}.cls-11{fill:#5e2e17;}.cls-12{fill:#313a5d;}</style></defs><g id="Capa_1"><g><g><path class="cls-10" d="M1563.43,1737.52l-1.11-.18c-52.5-16.64-84.72-38.21-115.67-70.42-53.07,2.01-108.64-.56-162.3-5.58-.21,8.73-.43,17.34-.64,25.82-1.3,52.04-2.54,101.2-2.54,143.21,0,1.48-.88,2.74-2.15,3.32,3.6,19.95,7.03,40.16,10.28,60.61h274.26c-.25-50.98,1.78-106.65,1.86-157.39-.59,.38-1.27,.61-1.98,.61Z"/><path class="cls-10" d="M1038.87,1759.42l-1.08,.16c-1.57,0-3.02-1.01-3.5-2.59-.59-1.93,.48-3.98,2.42-4.59,37.28-11.51,63.36-76.92,69.75-116.17-44.56-8.2-81.16-16.27-104.82-21.81-2.94,63.11-10.37,125.42-8.4,189.12,.96,31.51,2.08,61.5,3.29,90.75h273.91c1.89-19.05,3.77-39.21,5.59-60.59-1.29-.56-2.19-1.84-2.19-3.34,0-42.1,1.23-91.3,2.53-143.39,.22-8.64,.43-17.43,.65-26.34-59.02-5.78-115.43-14.42-163.34-23.08-6.77,41.78-34.11,109.3-74.81,121.86Z"/><path class="cls-10" d="M1565.41,1730.85c-.03-19.3-.36-37.84-1.25-55.02-.4-7.66-1.02-15.17-1.73-22.61-32.88,7.26-68.69,11.44-105.9,13.27,28.82,28.79,59.57,48.52,108,63.87,.33,.11,.6,.3,.88,.49Z"/></g><path class="cls-9" d="M1281.17,1830.37c0-42.01,1.23-91.17,2.54-143.21,.21-8.47,.43-17.09,.64-25.82-2.45-.23-4.89-.47-7.32-.7-.22,8.91-.43,17.7-.65,26.34-1.3,52.09-2.53,101.29-2.53,143.39,0,1.5,.9,2.78,2.19,3.34,.45,.2,.95,.32,1.48,.32s1.05-.14,1.51-.35c1.27-.58,2.15-1.84,2.15-3.32Z"/><path class="cls-9" d="M1036.71,1752.41c-1.94,.6-3.02,2.65-2.42,4.59,.48,1.57,1.93,2.59,3.5,2.59l1.08-.16c40.7-12.56,68.04-80.08,74.81-121.86-2.43-.44-4.84-.88-7.22-1.32-6.39,39.25-32.47,104.66-69.75,116.17Z"/><path class="cls-9" d="M1456.53,1666.48c-3.29,.16-6.58,.32-9.89,.44,30.95,32.21,63.18,53.78,115.67,70.42l1.11,.18c.71,0,1.4-.23,1.98-.61,.69-.45,1.25-1.11,1.51-1.95,.51-1.6-.18-3.23-1.51-4.11-.28-.18-.55-.38-.88-.49-48.43-15.35-79.18-35.09-108-63.87Z"/><path class="cls-3" d="M1077.43,555.35c5.3-1.93,11.2-4.19,17.43-6.63-2.79,1.05-5.56,2.14-8.36,3.15-3.04,1.09-6.05,2.27-9.06,3.48Z"/><path class="cls-3" d="M1194.87,509.77c.17-.14,.3-.31,.51-.41,1.8-.96,4.01-.27,4.95,1.53,12.55,23.77,43.84,58.56,71.55,58.56h.73c22.6-.51,42.55-22.04,60.16-41.03,6.46-6.98,12.58-13.57,18.55-18.88,1.3-1.15,3.17-1.15,4.53-.18,.38-.54,.78-1.05,1.15-1.6h-163.32c.39,.67,.79,1.34,1.2,2.02Z"/><path class="cls-3" d="M1193.67,507.75h163.32c5.44-7.95,9.96-16.5,13.04-25.6l.43,.29v-141.24c-2.96,.45-6-.27-8.09-2.99-.62-.8-1.19-1.69-1.74-2.64-5.77,20.87-13.8,39.61-23.66,54.19-15.8,23.47-78.23,74.07-112.09,74.34-16.37,.12-30.44-8.35-42.27-21.18v40.42c1.4,4.39,4.69,13.37,11.07,24.39Z"/><path class="cls-6" d="M1280.66,284.36c0-3.17,2.88-5.75,6.41-5.75s6.46,2.58,6.46,5.75c0,2.03,1.64,3.66,3.66,3.66s3.66-1.64,3.66-3.66c0-7.21-6.18-13.08-13.79-13.08s-13.74,5.86-13.74,13.08c0,2.03,1.64,3.66,3.66,3.66s3.66-1.64,3.66-3.66Z"/><path class="cls-6" d="M1185.78,284.36c0,2.03,1.64,3.66,3.66,3.66s3.66-1.64,3.66-3.66c0-7.21-6.18-13.08-13.76-13.08s-13.79,5.86-13.79,13.08c0,2.03,1.64,3.66,3.66,3.66s3.66-1.64,3.66-3.66c0-3.17,2.9-5.75,6.46-5.75s6.43,2.58,6.43,5.75Z"/><path class="cls-3" d="M1213.04,304.03c-1.24,4.3-2.5,8.66-3.63,13.23l-.49,1.9c-1.37,5.19-3.68,13.87,3.46,18.41,2.98,1.95,6.61,2.2,9.52,2.39,.62,.04,1.22,.08,1.8,.14,.7,.07,1.85,.25,3.07,.44,2.77,.43,4.56,.71,5.85,.71s2.06-.27,2.85-.9c.8-.65,1.32-1.67,1.38-2.7,.11-2.02-1.44-3.75-3.46-3.86l-1.12,.11c-.98-.08-3.05-.4-4.37-.61-1.38-.21-2.68-.41-3.48-.49-.65-.06-1.34-.11-2.03-.16-2.28-.15-4.63-.31-6.05-1.23-2.25-1.43-1.9-4.48-.34-10.36l.52-2.04c1.1-4.46,2.34-8.72,3.55-12.93,3.4-11.77,6.62-22.88,6.62-36.23,0-2.03-1.64-3.66-3.66-3.66s-3.66,1.64-3.66,3.66c0,12.31-3.08,22.94-6.34,34.2Z"/><path class="cls-3" d="M1363.66,276.01c1.99,.55,3.97-.61,4.52-2.55,.84-3.02,3.7-7.84,5.24-8.96,1.51,.75,4.28,3.68,5.78,14.98,1.62,12.05,.56,29.23-7.73,37.96-1.39,1.47-1.33,3.79,.14,5.18,.71,.67,1.62,1,2.52,1,.97,0,1.94-.38,2.66-1.14,10.05-10.6,11.59-29.68,9.68-43.98-.61-4.64-2.49-18.76-11.57-21.26-7.5-1.99-13.02,11.48-13.78,14.24-.54,1.95,.6,3.97,2.55,4.52Z"/><path class="cls-3" d="M1367.14,302.01c1.42,.93,2.82,1.39,4.2,1.39,.46,0,.92-.05,1.37-.16,2.61-.61,4.18-2.8,5.26-4.64,1.02-1.75,.44-3.99-1.3-5.02-1.75-1.02-4-.43-5.02,1.3l-.47,.75c-.22-.82-.26-2.62,.37-6.5l.13-.86c.3-2-1.09-3.86-3.09-4.16-1.95-.31-3.87,1.08-4.16,3.09l-.12,.75c-.62,3.86-1.79,11.03,2.84,14.05Z"/><path class="cls-9" d="M997.03,983.84c-3.98,0-5.44-18.83-6.14-27.89-.66-8.48-1.28-16.49-2.96-21.71-6.02-18.77-17.46-33.54-38.22-49.4-1.62-1.23-3.92-.92-5.14,.69-1.23,1.61-.92,3.91,.69,5.14,19.49,14.88,30.16,28.58,35.7,45.82,1.41,4.39,2.03,12.34,2.62,20.02,1.38,17.82,2.68,34.66,13.38,34.66h.36c.95-.04,1.77-.45,2.41-1.06,.07-1.65,.15-3.3,.22-4.95-.14-.16-.28-.32-.45-.45-.64-.53-1.43-.87-2.31-.87h-.17Z"/><g><path class="cls-11" d="M1429.12,178.62c-1.52-23.03-8.05-44.22-22.21-61.67-.56-.81-1.12-1.61-1.73-2.37-1.7-2.12-3.59-3.98-5.63-5.65-4.76-4.64-10.17-8.96-16.32-12.9-1.36-.87-2.84-1.56-4.36-2.15-3.66-31-57.72-44.24-57.72-44.24-26.97-10.22-58.56-49.64-58.56-49.64-32.16,6.66-40.46,48.23-40.46,48.23-9.42-1.66-31.97-36.58-31.97-36.58-89.61,29.93-50.06,98.11-50.06,98.11l-12.26-1.66c-12.25-1.66-15.79-16.4-15.79-16.4-5.47,28.13-6.71,56.79-5.55,83.9,3.37,78.85,27.18,144.38,27.18,144.38,0-.04,0-.06,0-.1,3.36-45.05-2.29-127.41,10.37-151.77,0,0,105.23,24.59,190.19-1.01,18.07-5.44,8.88,39.96,9.93,61.77,.97,20.05-12.77,73.69,9.05,74.59,1,.04,2.05,.01,3.21-.18,.61-3.34,.48-6.89,.44-10.26-.08-9.41-1.26-22.51,2.23-32.45,1.52-4.3,3.93-7.99,7.68-10.54,1.64-1.11,3.52-2.03,5.72-2.65,3.24-.9,6.64-1.1,9.96-.36,.29,.07,3.18,1.38,5.13,2.48,1.38,1.96,2.5,4.24,3.38,6.57,1.06,2.83,1.83,5.67,2.4,7.95,6.1,23.99,2.58,55.79-15.94,73.76-1.8,1.74-4.37,3.04-7,3.43v67.01c5.38-8.99,7.66-25.39,9.95-32.45,16.75-51.2,53.04-131.59,48.72-197.14Z"/><path class="cls-11" d="M1314.17,252.25c-4.74-3.53-10.98-4.94-16.59-6.44l-.7-.19c-12.27-3.21-25.84-5.11-38.05-.76-7.77,2.76-14.53,12.23-3.82,15.04,6.81,1.79,16.63-.21,23.57,.25,15,.97,28.83,2.57,42.56,7.65-.78-.29-1.1-7.25-1.55-8.48-1.12-2.96-2.86-5.17-5.42-7.06Z"/><path class="cls-11" d="M1197,245.22c-11.35-4.45-23.87-2.67-35.23,.43l-.67,.18c-5.16,1.44-10.91,2.79-15.28,6.28-2.34,1.87-3.96,4.05-4.97,7-.42,1.25-.61,8.2-1.36,8.48,12.68-4.96,25.47-6.43,39.35-7.29,6.44-.38,15.53,1.72,21.86-.02,9.9-2.71,3.52-12.23-3.68-15.05Z"/></g><path class="cls-2" d="M1214.69,351.74l-14.21,.61c-2.27,.09,.23,13.78,10.54,24.4,7.18,7.41,17.66,10.95,27.2,6.09,9.83-5.02,20.68-19.1,22.18-30.34-19.55-.6-26.04-1.57-45.7-.76Z"/><g><path class="cls-5" d="M1820.52,1026.63c-7.7-24.19-16.86-58.52-28.89-90.01-39.65,63.19-87.83,102.99-144.84,127.53,31.04,54.79,57.98,92.12,49.39,102.64-42.3,51.68-78.36,153.82-120.82,249.02,1.55,38.06,3.17,78.41,4.68,114.64,57.82-68.54,109.25-114.25,154.09-170.41,34.59-43.3,65.27-92.82,91.93-163.85,22.08-58.81,24.65-74.69-5.54-169.57Z"/><path class="cls-5" d="M919.52,1077.6c.03,15.51,.16,31.16,.28,47.05,.05,6.37,.13,12.27,.24,17.86-8.35-7.18-15.88-12.79-21.99-16.17-40.73-22.54-141.38-22.89-186.8-48.74h-129.48c9.28,3.86,19.15,8.09,29.77,13.68,39.39,20.75,72.99,58.74,104.7,88.81,34.9,33.14,71.96,69.13,111.32,96.27,25.63,17.67,92.93,68,145.91,81.3,4.54,1.86,9.4,3.26,14.56,4.2,1.59-25.2,3.11-49.49,4.43-71.29-1.34-.51-2.32-1.77-2.36-3.29-.18-5.94,.36-11.57,.88-17.02,.32-3.27,.63-6.54,.78-9.87,2.16-45.95,3.18-93.46,4.18-139.41,.24-11.14,.49-22.37,.75-33.62-12.64-2.51-25.21-5.71-37.43-9.75h-39.74Z"/><path class="cls-5" d="M1390.99,256.07c-.89-2.33-2-4.61-3.38-6.57-1.95-1.09-4.84-2.41-5.13-2.48-3.32-.74-6.72-.55-9.96,.36-2.2,.62-4.08,1.54-5.72,2.65-3.75,2.55-6.16,6.24-7.68,10.54-3.5,9.94-2.32,23.04-2.23,32.45,.04,3.37,.16,6.92-.44,10.26-1.15,.19-2.21,.22-3.21,.18-21.82-.9-8.08-54.54-9.05-74.59-1.05-21.8,8.15-67.21-9.93-61.77-84.96,25.6-190.19,1.01-190.19,1.01-12.66,24.36-7.01,106.71-10.37,151.77,.83,5.74,1.68,11.39,2.57,16.85,4,24.91,19.32,76.95,46.34,106.21,11.83,12.82,25.9,21.3,42.27,21.18,33.86-.27,96.29-50.87,112.09-74.34,9.86-14.58,17.89-33.32,23.66-54.19,.55,.95,1.12,1.83,1.74,2.64,2.09,2.71,5.12,3.43,8.09,2.99,2.62-.39,5.19-1.69,7-3.43,18.52-17.97,22.04-49.77,15.94-73.76-.57-2.28-1.34-5.12-2.4-7.95Zm-182.07,63.09l.49-1.9c1.12-4.57,2.39-8.93,3.63-13.23,3.26-11.26,6.34-21.89,6.34-34.2,0-2.03,1.64-3.66,3.66-3.66s3.66,1.64,3.66,3.66c0,13.35-3.21,24.47-6.62,36.23-1.22,4.21-2.46,8.48-3.55,12.93l-.52,2.04c-1.56,5.88-1.91,8.93,.34,10.36,1.42,.93,3.77,1.09,6.05,1.23,.69,.05,1.38,.09,2.03,.16,.8,.08,2.09,.28,3.48,.49,1.32,.21,3.39,.53,4.37,.61l1.12-.11c2.02,.1,3.57,1.83,3.46,3.86-.05,1.03-.57,2.05-1.38,2.7-.79,.64-1.59,.9-2.85,.9s-3.08-.28-5.85-.71c-1.23-.19-2.37-.37-3.07-.44-.58-.06-1.18-.1-1.8-.14-2.91-.2-6.54-.44-9.52-2.39-7.13-4.54-4.83-13.21-3.46-18.41Zm-19.48-31.13c-2.03,0-3.66-1.64-3.66-3.66,0-3.17-2.88-5.75-6.43-5.75s-6.46,2.58-6.46,5.75c0,2.03-1.64,3.66-3.66,3.66s-3.66-1.64-3.66-3.66c0-7.21,6.18-13.08,13.79-13.08s13.76,5.86,13.76,13.08c0,2.03-1.64,3.66-3.66,3.66Zm-10.62-27.73c-13.88,.86-26.67,2.33-39.35,7.29,.75-.28,.95-7.23,1.36-8.48,1-2.95,2.63-5.12,4.97-7,4.38-3.48,10.12-4.84,15.28-6.28l.67-.18c11.36-3.11,23.88-4.88,35.23-.43,7.2,2.82,13.58,12.34,3.68,15.05-6.32,1.74-15.41-.36-21.86,.02Zm59.39,122.54c-9.53,4.86-20.02,1.32-27.2-6.09-10.31-10.62-12.82-24.31-10.54-24.4l14.21-.61c19.66-.81,26.14,.16,45.7,.76-1.5,11.24-12.34,25.31-22.18,30.34Zm58.98-94.81c-2.03,0-3.66-1.64-3.66-3.66,0-3.17-2.9-5.75-6.46-5.75s-6.41,2.58-6.41,5.75c0,2.03-1.64,3.66-3.66,3.66s-3.66-1.64-3.66-3.66c0-7.21,6.16-13.08,13.74-13.08s13.79,5.86,13.79,13.08c0,2.03-1.64,3.66-3.66,3.66Zm-18.62-27.88c-6.94-.46-16.76,1.55-23.57-.25-10.71-2.8-3.95-12.28,3.82-15.04,12.21-4.34,25.78-2.45,38.05,.76l.7,.19c5.61,1.5,11.85,2.91,16.59,6.44,2.55,1.89,4.3,4.09,5.42,7.06,.45,1.23,.77,8.2,1.55,8.48-13.73-5.08-27.56-6.68-42.56-7.65Zm88.57,41.87c-4.63-3.02-3.46-10.19-2.84-14.05l.12-.75c.29-2.01,2.21-3.4,4.16-3.09,2,.3,3.39,2.16,3.09,4.16l-.13,.86c-.63,3.88-.59,5.68-.37,6.5l.47-.75c1.02-1.74,3.27-2.33,5.02-1.3,1.74,1.02,2.33,3.27,1.3,5.02-1.08,1.84-2.65,4.03-5.26,4.64-.45,.11-.91,.16-1.37,.16-1.37,0-2.77-.47-4.2-1.39Zm9.64,20.48c-.72,.76-1.69,1.14-2.66,1.14-.91,0-1.81-.33-2.52-1-1.46-1.39-1.53-3.71-.14-5.18,8.29-8.74,9.34-25.91,7.73-37.96-1.5-11.29-4.27-14.23-5.78-14.98-1.54,1.12-4.4,5.93-5.24,8.96-.55,1.94-2.52,3.1-4.52,2.55-1.95-.55-3.09-2.56-2.55-4.52,.76-2.75,6.28-16.23,13.78-14.24,9.08,2.5,10.96,16.62,11.57,21.26,1.91,14.3,.38,33.38-9.68,43.98Z"/></g><path class="cls-1" d="M1193.84,514.3c-.84-1.59-.34-3.46,1.02-4.54-.41-.68-.81-1.35-1.2-2.02-6.38-11.03-9.67-20-11.07-24.39-.6-1.89-.86-2.95-.86-2.95l-74.09,44.77,5.62,16.13,39.76,114.04,118.55-78.6c-30.99-.24-64-36.43-77.74-62.45Z"/><path class="cls-1" d="M1370.45,482.44l-.43-.29c-3.07,9.1-7.6,17.65-13.04,25.6-.37,.54-.77,1.06-1.15,1.6,.22,.16,.46,.28,.65,.49,1.34,1.52,1.2,3.84-.31,5.18-5.7,5.07-11.7,11.53-18.04,18.38-18.59,20.06-39.66,42.8-65.36,43.37h-.07l123.37,87.28,35.82-123.63,3.99-13.76-65.44-44.21Z"/><g><path class="cls-4" d="M996.91,1077.6h-37.66c12.21,4.04,24.79,7.24,37.43,9.75,.07-3.25,.15-6.5,.23-9.75Z"/><path class="cls-4" d="M1739.61,801.7c-7.57-11.75-15.13-23.57-22.8-35.34-17.98-27.61-36.53-54.93-57.12-80.32-19.31-23.81-37.03-57.43-67.44-67.27-4.08-3.29-9.03-6.39-15.09-9.27-41.35-19.66-81.59-35.09-122-57.08-8.28-4.51-15.87-8.31-23.25-12l-35.82,123.63-123.37-87.28h-.81c-.1,0-.21-.01-.31-.01l-118.55,78.6-39.76-114.04c-6.2,2.54-12.42,5.04-18.42,7.4-6.22,2.45-12.12,4.7-17.43,6.63-.64,.23-1.36,.51-1.98,.73-42.64,15.35-76.29,37.41-113.26,62.42-23.07,15.6-30.25,30.83-29.68,48.3-23.21,55.08-47.18,206.77-55.18,358.78,7.51,9.28,16.33,17.31,26.02,24.37h94.28c.56-19.93,1.24-39.91,2.1-59.84-.63,.61-1.46,1.02-2.41,1.06h-.36c-10.7,0-12.01-16.84-13.38-34.65-.59-7.68-1.21-15.63-2.62-20.02-5.54-17.24-16.21-30.94-35.7-45.82-1.61-1.23-1.91-3.53-.69-5.14,1.22-1.61,3.52-1.91,5.14-.69,20.77,15.86,32.2,30.63,38.22,49.4,1.68,5.21,2.3,13.22,2.96,21.71,.7,9.06,2.16,27.89,6.14,27.89h.17c.88,0,1.67,.34,2.31,.87,.17,.14,.31,.29,.45,.45,.91-20.38,2.01-40.7,3.44-60.8,.15-2.02,1.95-3.47,3.92-3.4,2.02,.15,3.54,1.9,3.4,3.92-2.93,41.16-4.57,83.23-5.75,125.07h92.52s28.08,2.68,30.36,27.65h-123.6c-.35,14.59-.67,29.12-.98,43.54-.99,45.98-2.02,93.55-4.18,139.58-.16,3.46-.48,6.85-.81,10.24-.53,5.46-1.02,10.61-.85,16.09,.06,2.02-1.53,3.71-3.55,3.78h-.11c-.46,0-.89-.1-1.3-.26-1.32,21.8-2.85,46.09-4.43,71.29-6.19,97.86-13.55,209.19-15.33,239.29-.16,2.73-.28,4.8-.35,6.12,0,0,10.63,2.79,29.3,7.16,23.66,5.54,60.25,13.61,104.82,21.81,2.38,.44,4.8,.88,7.22,1.32,47.91,8.66,104.33,17.3,163.34,23.08,2.44,.23,4.88,.47,7.32,.7,53.66,5.02,109.23,7.59,162.3,5.58,3.3-.12,6.6-.28,9.89-.44,37.21-1.83,73.02-6,105.9-13.27,7.96-1.76,15.76-3.68,23.35-5.81-.64-4.68-1.72-24.97-3.04-53.93-.82-18.16-1.74-39.74-2.71-63.03-1.5-36.23-3.12-76.58-4.68-114.64-3.03-74.26-5.83-139.74-7.06-148.6-1.25-8.91-2.39-17.75-3.47-26.57h-.02l-.45,.04c-1.82,0-3.41-1.36-3.63-3.23-7.33-60.54-6.91-97.19-6.54-129.53,.22-19.12,.42-37.18-1.07-57.71-.29-3.91-.56-7.98-.84-12.16-.86-12.55-1.77-25.91-3.14-39.04-1.48-14.13-3.48-27.99-6.55-40.29-6.8-27.19-6.16-31.84-2.92-43.75,1.6-5.86,3.78-13.88,5.51-29.34,.23-2.01,2-3.46,4.05-3.23,2.01,.23,3.46,2.04,3.23,4.05-1.8,16.02-4.07,24.36-5.73,30.45-2.75,10.11-3.68,13.51,2.96,40.05,3.93,15.74,6.16,33.78,7.73,51.69,1.11-4.3,2.37-8.62,3.62-12.9,3.06-10.41,5.95-20.24,6.19-28.52,.06-2.02,1.64-3.58,3.77-3.56,2.02,.06,3.62,1.75,3.56,3.77-.27,9.23-3.29,19.5-6.48,30.37-1.93,6.59-3.88,13.3-5.16,19.69,18.86,24.9,42.21,54.43,47.29,60.1,12.59-3.85,24.76-8.37,36.59-13.46,57.02-24.54,105.19-64.34,144.84-127.53,4.65-7.42,9.23-15.04,13.66-23.12-12.91-24.55-45.34-80.15-65.68-111.8Zm-234.8,769.64c-14.58,3.73-30.02,5.07-45.85,5.07-21.19,0-43.08-2.42-64.55-4.79-11.3-1.25-21.96-2.43-32.3-3.22-61.32-4.73-126.87-10.96-190.73-24.47-1.98-.42-3.25-2.36-2.82-4.34,.42-1.98,2.37-3.23,4.34-2.82,63.45,13.41,128.71,19.62,189.78,24.33,10.46,.8,21.18,1.99,32.55,3.25,36.85,4.07,74.96,8.28,107.78-.1,1.93-.5,3.96,.68,4.46,2.64,.5,1.96-.68,3.96-2.64,4.46Z"/></g><path class="cls-9" d="M1568.01,1236.57c-7.27-60.07-6.86-96.46-6.49-128.57,.22-19.28,.43-37.5-1.09-58.32-.28-3.91-.55-7.96-.84-12.12-.06-.85-.12-1.73-.18-2.58-.43,.21-.91,.33-1.42,.35h-.15c-1.95,0-3.57-1.55-3.66-3.52-.29-7.27,1.19-15.16,3.24-23.16-1.57-17.91-3.8-35.95-7.73-51.69-6.64-26.54-5.71-29.95-2.96-40.05,1.66-6.09,3.93-14.43,5.73-30.45,.23-2.01-1.22-3.82-3.23-4.05-2.06-.23-3.82,1.22-4.05,3.23-1.73,15.46-3.91,23.48-5.51,29.34-3.24,11.92-3.88,16.57,2.92,43.75,3.07,12.3,5.07,26.16,6.55,40.29,1.38,13.12,2.29,26.48,3.14,39.04,.28,4.18,.55,8.25,.84,12.16,1.5,20.52,1.29,38.58,1.07,57.71-.37,32.34-.79,68.98,6.54,129.53,.22,1.86,1.81,3.23,3.63,3.23l.45-.02h.02c2-.27,3.43-2.08,3.18-4.08Z"/><path class="cls-9" d="M1554.18,1031.81c.08,1.97,1.7,3.52,3.66,3.52h.15c.51-.02,.98-.14,1.42-.35,1.29-.61,2.16-1.95,2.1-3.46-.17-4.34,.42-9.09,1.41-14.01,1.28-6.39,3.23-13.1,5.16-19.69,3.2-10.88,6.21-21.14,6.48-30.37,.06-2.03-1.54-3.71-3.56-3.77-2.13-.02-3.71,1.54-3.77,3.56-.24,8.28-3.13,18.11-6.19,28.52-1.26,4.28-2.52,8.61-3.62,12.9-2.05,8-3.53,15.89-3.24,23.16Z"/><polygon class="cls-7" points="799.04 1049.95 647.43 688.46 635.54 688.46 787.14 1049.95 787.54 1049.95 799.04 1049.95"/><path class="cls-12" d="M787.54,1049.95h-.4l-151.6-361.48H0l126.78,302.3,24.82,59.18h-1.06v27.65H797.52l-9.98-27.65Zm-393.96-199.87c19.86,0,35.96,16.1,35.96,35.96s-16.1,35.96-35.96,35.96-35.96-16.1-35.96-35.96,16.1-35.96,35.96-35.96Z"/><path class="cls-8" d="M797.52,1077.6h199.4c.23-9.2,.46-18.41,.72-27.65h-210.09l9.98,27.65Z"/><path class="cls-8" d="M1127.84,1077.6c-2.27-24.97-30.36-27.65-30.36-27.65h-92.52c-.26,9.24-.5,18.45-.72,27.65h123.6Z"/><path class="cls-8" d="M393.57,922.01c19.86,0,35.96-16.1,35.96-35.96s-16.1-35.96-35.96-35.96-35.96,16.1-35.96,35.96,16.1,35.96,35.96,35.96Z"/><path class="cls-9" d="M999.73,990.11c-.86,19.93-1.54,39.91-2.1,59.84-.26,9.24-.49,18.45-.72,27.65-.08,3.25-.16,6.5-.23,9.75-.26,11.25-.51,22.48-.75,33.62-1,45.95-2.03,93.46-4.18,139.41-.15,3.34-.46,6.61-.78,9.87-.52,5.45-1.06,11.08-.88,17.02,.04,1.52,1.02,2.78,2.36,3.29,.41,.16,.84,.26,1.3,.26h.11c2.02-.06,3.61-1.75,3.55-3.78-.17-5.48,.32-10.63,.85-16.09,.33-3.39,.65-6.78,.81-10.24,2.16-46.04,3.19-93.6,4.18-139.58,.31-14.42,.64-28.95,.98-43.54,.22-9.2,.46-18.41,.72-27.65,1.18-41.84,2.82-83.9,5.75-125.07,.14-2.02-1.38-3.77-3.4-3.92-1.97-.07-3.77,1.38-3.92,3.4-1.43,20.1-2.52,40.41-3.44,60.8-.07,1.65-.15,3.3-.22,4.95Z"/><path class="cls-9" d="M1362.11,1568.4c10.34,.79,21.01,1.97,32.3,3.22,21.47,2.37,43.36,4.79,64.55,4.79,15.83,0,31.27-1.35,45.85-5.07,1.96-.5,3.15-2.5,2.64-4.46-.5-1.96-2.53-3.14-4.46-2.64-32.82,8.38-70.93,4.17-107.78,.1-11.36-1.26-22.09-2.44-32.55-3.25-61.07-4.71-126.33-10.92-189.78-24.33-1.97-.41-3.93,.84-4.34,2.82-.42,1.98,.85,3.93,2.82,4.34,63.86,13.5,129.41,19.74,190.73,24.47Z"/><path class="cls-9" d="M1338.14,533.39c6.35-6.85,12.34-13.31,18.04-18.38,1.51-1.34,1.65-3.66,.31-5.18-.19-.21-.43-.32-.65-.49-1.36-.97-3.23-.97-4.53,.18-5.97,5.3-12.08,11.89-18.55,18.88-17.61,19-37.56,40.52-60.16,41.03h-.73c-27.71,0-59-34.78-71.55-58.55-.94-1.79-3.15-2.49-4.95-1.53-.21,.11-.34,.28-.51,.41-1.36,1.07-1.86,2.95-1.02,4.54,13.73,26.02,46.75,62.21,77.74,62.45,.1,0,.21,.02,.31,.02h.88c25.7-.58,46.77-23.32,65.36-43.38Z"/></g></g></svg>